<svg [attr.viewBox]="'0 0 ' + CONST.SIZE + ' ' + CONST.SIZE" fill="none" xmlns="http://www.w3.org/2000/svg">
  <defs>
    <linearGradient id="bg_linear" x1="0" y1="0" [attr.x2]="CONST.SIZE" [attr.y2]="CONST.SIZE"
      gradientUnits="userSpaceOnUse">
      <stop [attr.stop-color]="settings.backgroundColor1" />
      <stop offset="1" [attr.stop-color]="settings.backgroundColor2" />
    </linearGradient>
  </defs>

  <!-- Background -->
  <path [attr.d]="path.background" fill="url(#bg_linear)" />

  <!-- Dashes -->
  <path
    d="M1201 1564c-8-45-8-68 24-73 31-7 61-16 89-26l20 57c-24 9-50 16-75 23l1 8-59 11Zm32-13Zm133-106 24 55c64-27 122-61 174-101l-37-47c-47 36-101 68-161 93Zm203-130 41 44c53-49 95-106 123-168l-55-25c-24 54-61 105-109 149Zm128-201 58 16a401 401 0 0 0 2-211l-58 15a356 356 0 0 1-2 180Zm-15-231 55-23c-25-62-65-117-114-166l-42 43c44 44 79 93 101 146Zm-141-182 38-46c-49-40-105-73-166-101l-25 55c57 26 109 57 153 92Zm-202-112c-54-19-112-34-174-43l9-59c65 9 127 25 185 46l-20 56Zm-227-49 6-60a1056 1056 0 0 0-190 0l6 60a989 989 0 0 1 178 0Zm-231 6-9-59c-65 10-127 25-185 46l21 57c54-20 112-35 173-44Zm-222 64-25-55c-61 27-117 61-165 101l38 46c43-36 95-67 152-92ZM467 738l-42-43c-50 49-88 105-114 166l56 23c22-53 56-102 100-146ZM350 935l-58-15a420 420 0 0 0 1 210l58-15a365 365 0 0 1-1-180Zm19 233-56 23c27 64 69 121 121 171l41-43c-47-45-83-96-106-151Zm148 187-37 47c51 40 110 74 175 101l23-56c-60-24-114-56-161-92Zm213 112-19 57c29 9 58 17 89 24l67 38 30-52-77-43c-31-6-61-15-90-24Zm212 94-30 51 5 4c47 28 99 59 151 86l27-54c-50-26-100-56-148-84l-5-3Zm201 110-25 55c29 13 59 25 89 34a60 60 0 0 0 78-64c-4-35-10-66-15-92l-59 12a1420 1420 0 0 1 14 87 587 587 0 0 1-82-32Z"
    [attr.fill]="settings.dashesColor" />

  <!-- Shape -->
  <path [attr.d]="path.shape" [attr.fill]="settings.shapeColor" fill-rule="evenodd" clip-rule="evenodd" />

  <!-- Tail -->
  <path *ngIf="settings.shapeGap"
    d="m1374 313-26 35c-41 55-86 113-76 184 4 16 9 29 13 40a947 947 0 0 0-351-32l-4-48a907 907 0 0 1 444-179Zm336 709c0-77-25-151-70-215 69-87 174-179 252-224-7 46-18 92-29 137v1c-15 56-29 113-35 171-21 213 22 403 78 606-63-41-119-90-173-142l-18-18c-22-23-56-56-84-63l-20-4c63-73 99-159 99-249Z"
    [attr.fill]="settings.shapeColor" />
</svg>
